<?xml version="1.0" encoding="utf-8"?>
<!-- Generator: Adobe Illustrator 27.0.0, SVG Export Plug-In . SVG Version: 6.00 Build 0)  -->
<svg version="1.1" id="Layer_1" xmlns="http://www.w3.org/2000/svg" xmlns:xlink="http://www.w3.org/1999/xlink" x="0px" y="0px"
	 viewBox="0 0 1280 393.4" style="enable-background:new 0 0 1280 393.4;" xml:space="preserve">
<style type="text/css">
	.st0{fill:none;stroke:#000000;stroke-miterlimit:10;}
	.st1{fill-rule:evenodd;clip-rule:evenodd;fill:#6B5BC4;}
	.st2{fill:#6B5BC4;}
	.st3{fill-rule:evenodd;clip-rule:evenodd;fill:#E1E0FC;}
	.st4{fill:#25252B;}
	.st5{font-family:'MavenPro-Regular';}
	.st6{font-size:21.9002px;}
	.st7{font-size:19.8489px;}
</style>
<g>
	<line class="st0" x1="45" y1="196.7" x2="1235" y2="196.7"/>
</g>
<circle class="st1" cx="1235" cy="196.7" r="5.3"/>
<g>
	<circle class="st1" cx="45" cy="196.7" r="5.3"/>
	<path class="st2" d="M40.2,167.1l-4.7-7.6l18.9,4.5L49.9,183l-4.8-7.7c-13.8,8.1-7.3,17.3,0,21.5C30.9,192.7,23.6,176.8,40.2,167.1
		z"/>
</g>
<g>
	<circle class="st1" cx="505.9" cy="196.7" r="5.3"/>
	<path class="st2" d="M504.8,226.7l-3.7,8.1l18.2-6.8l-6.8-18.2l-3.8,8.3c-14.7-6.3-9.4-16.3-2.7-21.3
		C492.4,202.4,487.2,219.2,504.8,226.7z"/>
</g>
<rect x="61.1" y="93.3" class="st3" width="205.3" height="50.2"/>
<text transform="matrix(1 0 0 1 70.8389 100.2334)"><tspan x="0" y="0" class="st4 st5 st6">Provide us with</tspan><tspan x="0" y="26.3" class="st4 st5 st6">the required data</tspan></text>
<g>
	<path class="st2" d="M340.3,43.6c-1.1-1.6-2.7-3.4-4.5-5.1s-3.6-3.3-5.1-4.5c-2.6-1.9-3.9-2.2-4.7-2.2h-25.5
		c-2.3,0-4.1,1.8-4.1,4.1v44.4c0,2.3,1.8,4.1,4.1,4.1h37.8c2.3,0,4.1-1.8,4.1-4.1V48.3C342.4,47.6,342.2,46.3,340.3,43.6z
		 M333.5,40.8c1.6,1.6,2.8,3,3.7,4.2h-7.9v-7.9C330.5,38,331.9,39.3,333.5,40.8L333.5,40.8z M339.2,80.4c0,0.4-0.4,0.8-0.8,0.8
		h-37.8c-0.4,0-0.8-0.4-0.8-0.8V36c0-0.4,0.4-0.8,0.8-0.8c0,0,25.5,0,25.5,0v11.5c0,0.9,0.7,1.6,1.6,1.6h11.5V80.4z"/>
	<path class="st2" d="M330.9,74.6h-23c-0.9,0-1.6-0.7-1.6-1.6c0-0.9,0.7-1.6,1.6-1.6h23c0.9,0,1.6,0.7,1.6,1.6
		C332.6,73.9,331.8,74.6,330.9,74.6z"/>
	<path class="st2" d="M330.9,68h-23c-0.9,0-1.6-0.7-1.6-1.6c0-0.9,0.7-1.6,1.6-1.6h23c0.9,0,1.6,0.7,1.6,1.6
		C332.6,67.3,331.8,68,330.9,68z"/>
	<path class="st2" d="M330.9,61.5h-23c-0.9,0-1.6-0.7-1.6-1.6c0-0.9,0.7-1.6,1.6-1.6h23c0.9,0,1.6,0.7,1.6,1.6
		C332.6,60.7,331.8,61.5,330.9,61.5z"/>
</g>
<rect x="506.5" y="282.3" class="st3" width="186.1" height="45.5"/>
<text transform="matrix(1 0 0 1 515.2778 288.5791)"><tspan x="0" y="0" class="st4 st5 st7">We will prepare</tspan><tspan x="0" y="23.8" class="st4 st5 st7">the required letters</tspan></text>
<g>
	<path class="st2" d="M777,252c-1.4-1.8-3.2-4-5.3-6.1c-2.1-2.1-4.2-4-6.1-5.3c-3.1-2.3-4.7-2.6-5.5-2.6h-22.4
		c-2.7,0-4.9,2.2-4.9,4.9v44.9c0,2.7,2.2,4.9,4.9,4.9h37.1c2.7,0,4.9-2.2,4.9-4.9v-30.2C779.6,256.7,779.3,255.2,777,252z
		 M768.9,248.7c1.9,1.9,3.3,3.6,4.4,5h-9.4v-9.4C765.3,245.4,767,246.9,768.9,248.7L768.9,248.7L768.9,248.7z M775.7,287.8
		c0,0.5-0.4,1-1,1h-37.1c-0.5,0-1-0.4-1-1V243c0-0.5,0.4-1,1-1c0,0,22.4,0,22.4,0v13.7c0,1.1,0.9,2,2,2h13.7V287.8z"/>
	<path class="st2" d="M757.8,232.9c-3.1-2.3-4.7-2.6-5.5-2.6h-22.4c-2.7,0-4.9,2.2-4.9,4.9V280c0,2.4,1.7,4.3,3.9,4.8v-49.6
		c0-0.5,0.4-1,1-1h29.7C758.9,233.7,758.3,233.3,757.8,232.9L757.8,232.9z"/>
</g>
</svg>
