<?xml version="1.0" encoding="UTF-8"?>
<svg id="uuid-000793ba-46cf-490e-9a1d-cb264b917be2" data-name="Layer 1" xmlns="http://www.w3.org/2000/svg" viewBox="0 0 921.5 127.2">
  <path d="M51.6,45.8l-15.9-3.1c-5.6-1.1-9.5-2.7-11.7-4.5-2.2-1.9-3.3-4.5-3.3-8s.9-5.5,2.6-7.6c1.8-2.1,4.2-3.8,7.4-4.9,3.2-1.1,6.9-1.7,11.3-1.7s10.9,.8,15.7,2.3c4.8,1.6,9.2,4,13.1,7.5l6-14.5c-2.7-2.4-5.9-4.4-9.5-6.1-3.6-1.7-7.5-3-11.8-3.8s-8.7-1.3-13.4-1.3c-7.9,0-14.8,1.3-20.8,3.8-6,2.5-10.7,6.1-14.1,10.7C3.7,19,2,24.4,2,30.6s2.2,13.4,6.5,18.1c4.4,4.7,11.1,7.9,20.3,9.7l16.1,3.1c3.9,.8,7,1.7,9.4,2.7,2.4,1,4.1,2.3,5.2,3.8,1,1.5,1.6,3.3,1.6,5.6,0,4.2-1.7,7.5-5.2,9.9-3.5,2.4-8.8,3.6-16,3.6s-8.6-.4-12.6-1.1c-4-.7-7.8-1.8-11.4-3.3-3.6-1.5-7-3.3-10.1-5.5L0,92.2c3.1,2.3,6.7,4.2,10.9,5.8,4.1,1.6,8.6,2.8,13.6,3.7,4.9,.9,10.1,1.3,15.5,1.3,8.1,0,15.1-1.3,21-3.8,6-2.6,10.6-6.1,13.9-10.7,3.3-4.6,4.9-9.9,4.9-16s-2.3-13-7-17.3c-4.6-4.4-11.7-7.5-21.2-9.4Z" style="fill: #fff;"/>
  <path d="M135.5,87.2c-1.6,.3-3.2,.5-4.8,.5-4.5,0-7.7-1.1-9.8-3.3-2.1-2.2-3.1-5.6-3.1-10.2v-28.4h22.6v-14.4h-22.6V11.1h-17.9V31.4h-14.1v14.4h13.5v29.3c0,9.1,2.3,16,7,20.8,4.7,4.8,11.8,7.2,21.4,7.2s5.5-.3,8.2-.9,5-1.4,7-2.4l-2.7-13.8c-1.6,.5-3.2,.9-4.8,1.2Z" style="fill: #fff;"/>
  <path d="M201.6,70.5c0,3.4-.7,6.5-2.1,9.2-1.4,2.7-3.4,4.8-5.9,6.3-2.5,1.5-5.4,2.3-8.6,2.3s-5.4-.5-7.3-1.6c-1.9-1.1-3.4-2.7-4.3-5-.9-2.2-1.3-4.9-1.3-8V31.4h-18.5v42.3c0,6.5,1,12,2.9,16.3,1.9,4.3,4.9,7.6,8.8,9.7,3.9,2.2,8.8,3.3,14.6,3.3s10.4-1.4,14.5-4.2c3.4-2.3,6.2-5.5,8.2-9.5v12.3h17.5V31.4h-18.5v39.1Z" style="fill: #fff;"/>
  <path d="M290.7,43c-1.8-3.6-4.4-6.5-8-8.9-4.2-2.7-9.2-4.1-15-4.1s-11.7,1.5-16.4,4.5c-4.7,3-8.3,7.3-10.9,12.7-2.6,5.4-3.9,11.9-3.9,19.3s1.3,13.7,3.9,19.2c2.6,5.5,6.3,9.8,11,12.8,4.7,3,10.3,4.5,16.6,4.5s11-1.4,15.3-4.3c3.9-2.6,6.8-6,8.6-10.4v13.2h17.3V1.4h-18.5V43Zm-4.5,40.1c-3.2,3.9-7.6,5.8-13.2,5.8s-9.9-1.9-13.1-5.8c-3.3-3.9-4.9-9.4-4.9-16.6s1.6-12.8,4.9-16.6c3.3-3.8,7.6-5.7,13.1-5.7s10,1.9,13.2,5.7c3.2,3.8,4.8,9.3,4.8,16.6s-1.6,12.7-4.8,16.6Z" style="fill: #fff;"/>
  <polygon points="377.5 31.4 358.1 81.1 338.8 31.4 319.3 31.4 348.5 99.9 336.2 127.2 355.2 127.2 396.3 31.4 377.5 31.4" style="fill: #fff;"/>
  <path d="M440.9,1.4l-46.6,100.2h26.7l8.1-19h45.2l8.2,19h26.9L462.8,1.4h-21.9Zm10.5,27.1h.6l13.9,33.1h-28.3l13.8-33.1Z" style="fill: #fff;"/>
  <path d="M579.9,33.9c-4.6-3.1-10.1-4.6-16.5-4.6s-9.9,1.2-13.9,3.6c-3.4,2-5.9,4.5-7.7,7.6V1.4h-26V101.6h24.3v-11.6c1.8,3.9,4.6,7.1,8.5,9.4,4.2,2.6,9.1,3.8,14.6,3.8s12-1.5,16.7-4.5c4.7-3,8.3-7.3,10.9-12.9,2.6-5.6,3.8-12.1,3.8-19.5s-1.3-13.9-3.8-19.4-6.2-9.9-10.8-12.9Zm-14.9,45.7c-2.5,2.9-5.8,4.4-9.9,4.4s-7.4-1.5-9.9-4.4c-2.5-2.9-3.8-7.4-3.8-13.4s1.2-10.5,3.7-13.4c2.5-2.9,5.8-4.3,9.9-4.3s7.5,1.4,9.9,4.3c2.5,2.9,3.7,7.4,3.7,13.4s-1.2,10.4-3.7,13.4Z" style="fill: #fff;"/>
  <path d="M664.6,33.7c-5.9-3-12.8-4.5-20.7-4.5s-14.9,1.5-20.7,4.5c-5.9,3-10.4,7.2-13.7,12.8-3.3,5.5-4.9,12.1-4.9,19.7s1.6,14,4.8,19.6c3.2,5.6,7.8,9.9,13.7,12.9,5.9,3,12.9,4.5,20.8,4.5s14.9-1.5,20.7-4.5c5.9-3,10.4-7.3,13.7-12.9,3.3-5.6,4.9-12.1,4.9-19.6s-1.6-14.1-4.9-19.7c-3.3-5.5-7.8-9.8-13.7-12.8Zm-10.8,45.7c-2.5,2.9-5.8,4.4-9.9,4.4s-7.5-1.5-9.9-4.4c-2.5-2.9-3.7-7.3-3.7-13.2s1.2-10.4,3.7-13.3c2.5-2.9,5.8-4.3,9.9-4.3s7.5,1.4,9.9,4.3c2.5,2.9,3.7,7.3,3.7,13.3s-1.2,10.3-3.7,13.2Z" style="fill: #fff;"/>
  <path d="M750.2,32.6c-5.2-2.2-11.6-3.3-19.4-3.3s-7.9,.4-12.1,1.1c-4.2,.7-8.2,1.7-12,3-3.8,1.3-7.2,2.8-10.1,4.5l6.3,16.8c4.5-2.5,9-4.2,13.3-5.3,4.3-1,8.3-1.6,12-1.6s7.8,.7,9.9,2.1c2,1.4,3.1,3.9,3.1,7.6v1.4h-5.7c-9.9,0-18,.7-24.1,2.1-6.1,1.4-10.6,3.6-13.4,6.7-2.8,3-4.2,7.1-4.2,12.2s1.2,8.4,3.6,11.9c2.4,3.5,5.7,6.3,9.9,8.3,4.2,2,9.1,3.1,14.6,3.1s7.2-.6,10.1-1.8,5.2-3,7.2-5.2c1.8-2,3.1-4.4,4-7.1v12.6h22.9V61.1c0-7.5-1.3-13.5-4-18.2-2.7-4.6-6.6-8.1-11.7-10.3Zm-10.9,47.3c-1.2,1.9-2.7,3.5-4.7,4.6-1.9,1.1-4.1,1.7-6.5,1.7s-5.4-.7-7-2.1c-1.6-1.4-2.4-3.2-2.4-5.5s.4-2.6,1.1-3.6c.7-.9,1.8-1.7,3.2-2.3,1.4-.6,3.2-1.1,5.4-1.4,2.2-.3,4.7-.4,7.7-.4h5v2c0,2.7-.6,5-1.8,6.9Z" style="fill: #fff;"/>
  <path d="M827.7,29.7c-6.2,.4-11.1,2.3-14.8,5.6-3.2,2.9-5.5,6.6-6.7,11.1v-15.6h-24V101.6h26.3v-33.5c0-4.5,1.2-8,3.6-10.5,2.4-2.6,6-4,10.9-4.4l14.9-1.4-1.7-22.7-8.4,.7Z" style="fill: #fff;"/>
  <path d="M895.5,1.4V40.6c-1.7-3.1-4.2-5.7-7.7-7.8-4-2.4-8.6-3.6-13.9-3.6s-11.7,1.5-16.4,4.6c-4.7,3.1-8.3,7.4-10.9,12.9s-3.8,12-3.8,19.4,1.3,13.9,3.8,19.5c2.6,5.6,6.2,9.9,10.9,12.9,4.7,3,10.3,4.5,16.6,4.5s10.3-1.3,14.6-3.8c3.9-2.4,6.7-5.6,8.5-9.6v11.9h24.3V1.4h-26Zm-3.3,78.2c-2.5,2.9-5.8,4.4-9.9,4.4s-7.4-1.5-9.9-4.4c-2.5-2.9-3.8-7.4-3.8-13.4s1.2-10.5,3.7-13.4c2.5-2.9,5.8-4.3,9.9-4.3s7.5,1.4,9.9,4.3c2.5,2.9,3.7,7.4,3.7,13.4s-1.2,10.4-3.7,13.4Z" style="fill: #fff;"/>
</svg>